<?xml version="1.0" encoding="UTF-8"?>
<svg width="25px" height="25px" viewBox="0 0 25 25" version="1.1" xmlns="http://www.w3.org/2000/svg" xmlns:xlink="http://www.w3.org/1999/xlink">
    <title>cute-ghost</title>
    <g id="Page-1" stroke="none" stroke-width="1" fill="none" fill-rule="evenodd">
        <g id="cute-ghost" transform="translate(0.125000, 0.125000)" fill="#FFFFFF" fill-rule="nonzero">
            <path d="M23.8922872,13.8829787 C23.782147,13.4423243 23.4928897,13.0677362 23.0944149,12.849734 L23.0265957,12.8178191 C22.4244601,12.6091982 21.8659294,12.2913902 21.3789894,11.8803191 C20.73514,11.3219619 20.2344592,10.6174521 19.918883,9.82579787 C19.6449733,9.14740757 19.5185043,8.41851125 19.5478723,7.6875 L19.5478723,7.38031915 C19.5463376,7.24691019 19.5370133,7.11370471 19.5199468,6.98138298 C19.2200422,3.2368522 16.22273,0.2768791 12.474734,0.0239361702 C12.1416307,-0.00604486969 11.8065076,-0.00604486969 11.4734043,0.0239361702 C7.73506523,0.281432798 4.74164314,3.22406152 4.42021277,6.95744681 C4.42021277,7.10505319 4.38829787,7.62367021 4.39228723,7.64760638 L4.39228723,7.6875 C4.41834046,8.41865732 4.29058442,9.14713858 4.01728723,9.82579787 C3.70209221,10.6186936 3.19977606,11.3235787 2.55319149,11.8803191 C2.06813203,12.2919483 1.51079679,12.6098458 0.909574468,12.8178191 L0.841755319,12.849734 C0.443280465,13.0677362 0.154023237,13.4423243 0.0438829787,13.8829787 C-0.149917979,14.7150554 0.346009919,15.5521535 1.16888298,15.7819149 L3.59042553,16.4401596 C3.99460436,16.5565929 4.23898035,16.9667955 4.14893617,17.3776596 L3.5106383,20.106383 C3.40988063,20.5564196 3.50875138,21.02804 3.78177352,21.3997172 C4.05479566,21.7713944 4.47526698,22.0067774 4.93484043,22.0452128 L8.0106383,22.2805851 C8.30611038,22.3270361 8.58257955,22.4555942 8.80851064,22.6515957 C9.62875216,23.4789862 10.7471854,23.9418853 11.912234,23.9362225 L12.0239362,23.9362225 C13.1861333,23.9392966 14.3011282,23.4766312 15.1196809,22.6515957 C15.3456119,22.4555942 15.6220811,22.3270361 15.9175532,22.2805851 L18.9933511,22.0452128 C19.4543628,22.0089435 19.8769694,21.7744684 20.1517297,21.4025087 C20.4264901,21.030549 20.5263802,20.5576888 20.4255319,20.106383 L19.7952128,17.3776596 C19.7044738,16.9691411 19.9447761,16.5599306 20.3457447,16.4401596 L22.7393617,15.7819149 C23.5735155,15.5642769 24.0840065,14.7234682 23.8922872,13.8829787 Z M22.5558511,15.0119681 L20.162234,15.6702128 C19.3388719,15.8912621 18.8346774,16.72046 19.0172872,17.5531915 L19.6476064,20.2819149 C19.6978466,20.5068197 19.6483907,20.7424628 19.5119681,20.9281915 C19.3752146,21.1121568 19.1659441,21.2284182 18.9375,21.2473404 L15.8656915,21.4827128 C15.6708691,21.5002315 15.47985,21.5473136 15.2992021,21.6223404 C15.0248069,20.4192439 14.9107857,19.1851327 14.9601064,17.9521277 C14.9601064,17.8204787 14.9601064,17.6928191 14.9840426,17.5531915 C14.9939572,17.4430283 14.9126898,17.345686 14.8025266,17.3357713 C14.6923634,17.3258566 14.5950211,17.4071241 14.5851064,17.5172872 C14.5851064,17.6529255 14.5651596,17.7885638 14.5611702,17.9162234 C14.5074986,19.2154726 14.630973,20.5159803 14.9281915,21.7819149 C14.7926764,21.8599774 14.6668119,21.9537062 14.5531915,22.0611702 C13.8892069,22.7456534 12.9775469,23.1338998 12.0239362,23.1383151 L11.912234,23.1383151 C10.9626877,23.1412573 10.0516118,22.7633189 9.38297872,22.0890957 C9.26935831,21.9816318 9.14349386,21.8879029 9.00797872,21.8098404 C9.30447595,20.5464941 9.42794569,19.2487198 9.375,17.9521277 C9.375,17.8125 9.375,17.6768617 9.35106383,17.5531915 C9.34114914,17.4430283 9.2438068,17.3617609 9.13364362,17.3716755 C9.02348044,17.3815902 8.94221298,17.4789326 8.95212766,17.5890957 C8.95212766,17.7167553 8.95212766,17.8444149 8.97606383,17.9880319 C9.02535955,19.2197169 8.91133657,20.4525066 8.63696809,21.6542553 C8.45632019,21.5792285 8.26530114,21.5321464 8.07047872,21.5146277 L4.99867021,21.2792553 C4.77022614,21.2603331 4.56095564,21.1440717 4.42420213,20.9601064 C4.28777953,20.7743777 4.23832357,20.5387346 4.28856383,20.3138298 L4.91888298,17.5531915 C5.10513506,16.7239084 4.60869719,15.894173 3.78989362,15.6662234 L1.3962766,15.0079787 C0.984840066,14.893098 0.736876117,14.474549 0.833776596,14.0585106 C0.887874164,13.8536405 1.01759365,13.6768799 1.19680851,13.5638298 C1.88240744,13.3224447 2.51792087,12.9573625 3.07180851,12.4867021 C3.81401416,11.8431738 4.392444,11.0322781 4.75930851,10.1210106 C5.07429246,9.33722642 5.21976934,8.49563585 5.18617021,7.65159574 L5.18617021,7.38829787 C5.18686534,7.27089361 5.19485949,7.15364614 5.21010638,7.03723404 C5.49054053,3.68603646 8.17786752,1.0427918 11.5332447,0.817819149 C11.8251315,0.789893472 12.1190175,0.789893472 12.4109043,0.817819149 C15.7657814,1.04923045 18.4480007,3.69754049 18.7220745,7.04920213 C18.7375662,7.16024034 18.745563,7.27219573 18.7460106,7.38430851 L18.7460106,7.6356383 C18.7154779,8.48502635 18.8622115,9.33146167 19.1768617,10.1210106 C19.5437262,11.0322781 20.122156,11.8431738 20.8643617,12.4867021 C21.4182493,12.9573625 22.0537628,13.3224447 22.7393617,13.5638298 C22.9337861,13.671792 23.0773066,13.8526278 23.1382979,14.0664894 C23.2313002,14.48722 22.97345,14.905785 22.5558511,15.0119681 Z M9.11170213,5.27393617 C9.25954367,5.635299 9.12415916,6.05057086 8.79174309,6.2553629 C8.45932703,6.46015494 8.02753624,6.39430358 7.7712766,6.09973404 C7.64183604,6.44535458 7.57693095,6.81179788 7.57978723,7.18085106 C7.57978723,8.28590426 8.1143617,9.17553191 8.77659574,9.17553191 C9.43882979,9.17553191 9.97340426,8.28191489 9.97340426,7.18085106 C9.97340426,6.2712766 9.61037234,5.51728723 9.11170213,5.27393617 Z M15.4946809,5.27393617 C15.6425224,5.635299 15.5071379,6.05057086 15.1747218,6.2553629 C14.8423058,6.46015494 14.410515,6.39430358 14.1542553,6.09973404 C14.0248148,6.44535458 13.9599097,6.81179788 13.962766,7.18085106 C13.962766,8.28590426 14.4973404,9.17553191 15.1595745,9.17553191 C15.8218085,9.17553191 16.356383,8.28191489 16.356383,7.18085106 C16.356383,6.2712766 15.9933511,5.51728723 15.4946809,5.27393617 Z M11.9680851,10.3723404 C11.5691489,10.3723404 9.57446809,10.4202128 9.57446809,11.3696809 C9.57446809,11.8643617 10.5638298,14.3617021 11.9680851,14.3617021 C13.3723404,14.3617021 14.3617021,11.8643617 14.3617021,11.3696809 C14.3617021,10.4202128 12.3670213,10.3723404 11.9680851,10.3723404 Z M5.23005319,11.3696809 C5.12237995,11.3822007 5.04343008,11.4769406 5.05053191,11.5851064 C5.08948414,12.0327618 5.0828008,12.4832185 5.03058511,12.9295213 C4.96689145,13.4922754 4.82315303,14.0430488 4.6037234,14.5651596 C4.56160307,14.6665357 4.60750135,14.7830467 4.70744681,14.8284574 C4.73370584,14.8344424 4.76097501,14.8344424 4.78723404,14.8284574 C4.86679916,14.8287345 4.93891892,14.7816999 4.97074468,14.7087766 C5.20365722,14.1505813 5.35675786,13.5623525 5.42553191,12.9614362 C5.48241723,12.4994712 5.4904403,12.0327962 5.44946809,11.5691489 C5.4497516,11.5126022 5.426021,11.4585924 5.38417926,11.4205544 C5.34233752,11.3825165 5.28631715,11.3640254 5.23005319,11.3696809 L5.23005319,11.3696809 Z M18.9055851,12.9295213 C18.8600062,12.4825419 18.8600062,12.0320858 18.9055851,11.5851064 C18.9154998,11.4749432 18.8342323,11.3776009 18.7240691,11.3676862 C18.613906,11.3577715 18.5165636,11.439039 18.5066489,11.5492021 C18.4631124,12.0247366 18.4711378,12.5035851 18.5305851,12.9773936 C18.5974872,13.5786574 18.750656,14.167148 18.9853723,14.724734 C19.0171981,14.7976573 19.0893179,14.844692 19.168883,14.8444149 C19.1951837,14.8500171 19.2223695,14.8500171 19.2486702,14.8444149 C19.3486157,14.7990041 19.3945139,14.6824931 19.3523936,14.581117 C19.1246424,14.0549944 18.9741497,13.4987089 18.9055851,12.9295213 L18.9055851,12.9295213 Z" id="Shape"></path>
        </g>
    </g>
</svg>