<?xml version="1.0" encoding="UTF-8"?>
<svg width="20px" height="17px" viewBox="0 0 20 17" version="1.1" xmlns="http://www.w3.org/2000/svg" xmlns:xlink="http://www.w3.org/1999/xlink">
    <!-- Generator: Sketch 52.6 (67491) - http://www.bohemiancoding.com/sketch -->
    <title>noun_restart_1921230</title>
    <desc>Created with Sketch.</desc>
    <g id="Current-Design" stroke="none" stroke-width="1" fill="none" fill-rule="evenodd">
        <g id="Desktop" transform="translate(-444.000000, -949.000000)" fill="#FFFFFF">
            <g id="noun_restart_1921230" transform="translate(444.000000, 949.000000)">
                <path d="M1.24666426,6.93670983 L0.0261288103,2.84791606 C-0.0755824776,2.48175542 0.127840098,2.09525253 0.494000734,1.99354124 C0.860161371,1.89182995 1.24666426,2.09525253 1.34837555,2.46141317 L2.06035457,4.8414573 C3.38260131,1.97319898 6.29154414,0 9.64801664,0 C13.2485962,0 16.3202771,2.27833285 17.5204703,5.45172503 C17.6832084,5.8992547 17.3577323,6.38746888 16.8898603,6.38746888 C16.6050687,6.38746888 16.3406194,6.20438856 16.2389081,5.93993921 C15.2421375,3.27510347 12.6586708,1.36293126 9.64801664,1.36293126 C6.75941607,1.36293126 4.25731838,3.11236541 3.17917873,5.63480535 L5.7829877,4.8414573 C6.14914834,4.73974601 6.53565123,4.94316859 6.63736252,5.30932923 C6.73907381,5.67548986 6.53565123,6.06199276 6.1694906,6.16370404 L2.08069682,7.3842395 C1.73487845,7.48595079 1.34837555,7.28252821 1.24666426,6.93670983 Z" id="Path"></path>
                <path d="M18.0656869,14.3267359 L17.3537079,11.9466917 C16.0111189,14.7946078 13.1021761,16.7678068 9.7457036,16.7678068 C6.14512401,16.7678068 3.07344312,14.4894739 1.87324992,11.3160818 C1.71051186,10.8685521 2.03598798,10.3803379 2.50385991,10.3803379 C2.78865151,10.3803379 3.05310086,10.5634182 3.15481215,10.8278676 C4.15158277,13.4927033 6.73504948,15.4048755 9.7457036,15.4048755 C12.6343042,15.4048755 15.1364019,13.6554414 16.2145415,11.1330014 L13.6107325,11.9263495 C13.2445719,12.0280608 12.858069,11.8246382 12.7563577,11.4584776 C12.6546464,11.0923169 12.858069,10.705814 13.2242296,10.6041027 L17.3130234,9.38356729 C17.6791841,9.281856 18.0656869,9.48527858 18.1673982,9.85143922 L19.3879337,13.940233 C19.489645,14.3063936 19.2862224,14.6928965 18.9200618,14.7946078 C18.5539011,14.8963191 18.1673982,14.6928965 18.0656869,14.3267359 Z" id="Path"></path>
            </g>
        </g>
    </g>
</svg>