<?xml version="1.0" encoding="UTF-8"?>
<svg width="24px" height="23px" viewBox="0 0 24 23" version="1.1" xmlns="http://www.w3.org/2000/svg" xmlns:xlink="http://www.w3.org/1999/xlink">
    <!-- Generator: Sketch 52.6 (67491) - http://www.bohemiancoding.com/sketch -->
    <title>noun_checkmark_160932 copy</title>
    <desc>Created with Sketch.</desc>
    <g id="Current-Design" stroke="none" stroke-width="1" fill="none" fill-rule="evenodd">
        <g id="Desktop" transform="translate(-602.000000, -386.000000)" fill="#59F72C" fill-rule="nonzero">
            <g id="noun_checkmark_160932-copy" transform="translate(602.000000, 386.000000)">
                <path d="M12,0 C5.37253333,0 0,5.14867778 0,11.5 C0,17.8510667 5.37253333,23 12,23 C18.6272,23 24,17.8510667 24,11.5 C24,5.14867778 18.6272,0 12,0 Z M17.7745048,8.58857281 L11.6326002,16.2652728 C11.4384853,16.5080703 11.15315,16.6420546 10.858041,16.6646038 C10.4812137,16.7154707 10.0870111,16.5791265 9.84131322,16.2676326 L6.22100215,11.6799142 C5.85910679,11.2210637 5.95141318,10.5597946 6.42651962,10.2100194 C6.90162606,9.8605064 7.58632231,9.94965449 7.94848916,10.408505 L10.7418435,13.9484711 L16.0559769,7.30641341 C16.4211302,6.84992271 17.1066409,6.76496981 17.5793039,7.1178914 C18.0519669,7.47081299 18.139658,8.13208211 17.7745048,8.58857281 Z" id="Shape"></path>
            </g>
        </g>
    </g>
</svg>